HIERARCHY
ROOT Hips
{
	OFFSET 0.000000 0.000000 0.000000 
	CHANNELS 6 Xposition Yposition Zposition Yrotation Xrotation Zrotation
	JOINT Spine
	{
		OFFSET 0.000000 0.072080 0.012321 
		CHANNELS 3 Xrotation Yrotation Zrotation
		JOINT Spine1
		{
			OFFSET 0.000000 0.126984 -0.001294 
			CHANNELS 3 Xrotation Yrotation Zrotation
			JOINT Spine2
			{
				OFFSET 0.000000 0.106559 -0.010096 
				CHANNELS 3 Xrotation Yrotation Zrotation
				JOINT Neck
				{
					OFFSET 0.000000 0.108417 -0.034017 
					CHANNELS 3 Xrotation Yrotation Zrotation
					JOINT Neck1
					{
						OFFSET 0.000000 0.033906 0.007241 
						CHANNELS 3 Xrotation Yrotation Zrotation
						JOINT Head
						{
							OFFSET 0.000000 0.031458 0.006707 
							CHANNELS 3 Xrotation Yrotation Zrotation
							End Site
							{
								OFFSET 0.000000 0.179920 0.000962 
							}
						}
					}
				}
				JOINT LeftShoulder
				{
					OFFSET 0.048002 0.079586 -0.029634 
					CHANNELS 3 Zrotation Xrotation Yrotation
					JOINT LeftArm
					{
						OFFSET 0.096243 -0.008695 -0.014012 
						CHANNELS 3 Zrotation Xrotation Yrotation
						JOINT LeftForeArm
						{
							OFFSET 0.216305 0.000000 0.000000 
							CHANNELS 3 Xrotation Zrotation Yrotation
							JOINT LeftHand
							{
								OFFSET 0.217764 0.000000 0.000000 
								CHANNELS 3 Zrotation Yrotation Xrotation
								JOINT LeftHandThumb1
								{
									OFFSET 0.018582 -0.007835 0.020476 
									CHANNELS 3 Zrotation Xrotation Yrotation
									JOINT LeftHandThumb2
									{
										OFFSET 0.026269 -0.007835 0.022186 
										CHANNELS 3 Zrotation Xrotation Yrotation
										JOINT LeftHandThumb3
										{
											OFFSET 0.035170 -0.010504 0.017018 
											CHANNELS 3 Zrotation Xrotation Yrotation
											End Site
											{
												OFFSET 0.020312 -0.007813 0.007813 
											}
										}
									}
								}
								JOINT LeftHandMiddle1
								{
									OFFSET 0.081749 0.004803 0.003358 
									CHANNELS 3 Zrotation Xrotation Yrotation
									JOINT LeftHandMiddle2
									{
										OFFSET 0.045251 0.000000 0.000000 
										CHANNELS 3 Zrotation Xrotation Yrotation
										JOINT LeftHandMiddle3
										{
											OFFSET 0.029009 0.000000 0.000000 
											CHANNELS 3 Zrotation Xrotation Yrotation
											End Site
											{
												OFFSET 0.017969 0.000000 0.000000 
											}
										}
									}
								}
								JOINT LeftHandIndex1
								{
									OFFSET 0.081207 0.004803 0.021137 
									CHANNELS 3 Zrotation Xrotation Yrotation
									JOINT LeftHandIndex2
									{
										OFFSET 0.043354 0.000000 0.000000 
										CHANNELS 3 Zrotation Xrotation Yrotation
										JOINT LeftHandIndex3
										{
											OFFSET 0.026493 0.000000 0.000000 
											CHANNELS 3 Zrotation Xrotation Yrotation
											End Site
											{
												OFFSET 0.019531 0.000000 0.000000 
											}
										}
									}
								}
								JOINT LeftHandRing1
								{
									OFFSET 0.080666 0.002509 -0.014652 
									CHANNELS 3 Zrotation Xrotation Yrotation
									JOINT LeftHandRing2
									{
										OFFSET 0.042541 0.000000 0.000000 
										CHANNELS 3 Zrotation Xrotation Yrotation
										JOINT LeftHandRing3
										{
											OFFSET 0.029009 0.000000 0.000000 
											CHANNELS 3 Zrotation Xrotation Yrotation
											End Site
											{
												OFFSET 0.015625 0.000000 0.000000 
											}
										}
									}
								}
								JOINT LeftHandPinky1
								{
									OFFSET 0.078227 -0.000612 -0.030993 
									CHANNELS 3 Zrotation Xrotation Yrotation
									JOINT LeftHandPinky2
									{
										OFFSET 0.028721 0.000000 0.000000 
										CHANNELS 3 Zrotation Xrotation Yrotation
										JOINT LeftHandPinky3
										{
											OFFSET 0.021963 0.000000 0.000000 
											CHANNELS 3 Zrotation Xrotation Yrotation
											End Site
											{
												OFFSET 0.022656 0.000000 0.000000 
											}
										}
									}
								}
							}
						}
					}
				}
				JOINT RightShoulder
				{
					OFFSET -0.047970 0.079586 -0.029634 
					CHANNELS 3 Zrotation Xrotation Yrotation
					JOINT RightArm
					{
						OFFSET -0.096274 -0.008695 -0.014012 
						CHANNELS 3 Zrotation Xrotation Yrotation
						JOINT RightForeArm
						{
							OFFSET -0.216305 0.000000 0.000000 
							CHANNELS 3 Xrotation Zrotation Yrotation
							JOINT RightHand
							{
								OFFSET -0.217764 0.000000 0.000000 
								CHANNELS 3 Zrotation Yrotation Xrotation
								JOINT RightHandThumb1
								{
									OFFSET -0.019670 -0.007318 0.019638 
									CHANNELS 3 Zrotation Xrotation Yrotation
									JOINT RightHandThumb2
									{
										OFFSET -0.025498 -0.008492 0.023179 
										CHANNELS 3 Zrotation Xrotation Yrotation
										JOINT RightHandThumb3
										{
											OFFSET -0.034504 -0.010705 0.016680 
											CHANNELS 3 Zrotation Xrotation Yrotation
											End Site
											{
												OFFSET -0.020312 -0.007813 0.007813 
											}
										}
									}
								}
								JOINT RightHandIndex1
								{
									OFFSET -0.081770 0.003825 0.021187 
									CHANNELS 3 Zrotation Xrotation Yrotation
									JOINT RightHandIndex2
									{
										OFFSET -0.042006 0.000000 0.000000 
										CHANNELS 3 Zrotation Xrotation Yrotation
										JOINT RightHandIndex3
										{
											OFFSET -0.026449 0.000000 0.000000 
											CHANNELS 3 Zrotation Xrotation Yrotation
											End Site
											{
												OFFSET -0.020312 0.000000 0.000000 
											}
										}
									}
								}
								JOINT RightHandMiddle1
								{
									OFFSET -0.084059 0.003825 0.003342 
									CHANNELS 3 Zrotation Xrotation Yrotation
									JOINT RightHandMiddle2
									{
										OFFSET -0.043881 0.000000 0.000000 
										CHANNELS 3 Zrotation Xrotation Yrotation
										JOINT RightHandMiddle3
										{
											OFFSET -0.029191 0.000000 0.000000 
											CHANNELS 3 Zrotation Xrotation Yrotation
											End Site
											{
												OFFSET -0.017969 0.000000 0.000000 
											}
										}
									}
								}
								JOINT RightHandRing1
								{
									OFFSET -0.081798 0.003030 -0.015127 
									CHANNELS 3 Zrotation Xrotation Yrotation
									JOINT RightHandRing2
									{
										OFFSET -0.042198 0.000000 0.000000 
										CHANNELS 3 Zrotation Xrotation Yrotation
										JOINT RightHandRing3
										{
											OFFSET -0.026497 0.000000 0.000000 
											CHANNELS 3 Zrotation Xrotation Yrotation
											End Site
											{
												OFFSET -0.017188 0.000000 0.000000 
											}
										}
									}
								}
								JOINT RightHandPinky1
								{
									OFFSET -0.077902 -0.000930 -0.030891 
									CHANNELS 3 Zrotation Xrotation Yrotation
									JOINT RightHandPinky2
									{
										OFFSET -0.028538 0.000000 0.000000 
										CHANNELS 3 Zrotation Xrotation Yrotation
										JOINT RightHandPinky3
										{
											OFFSET -0.021734 0.000000 0.000000 
											CHANNELS 3 Zrotation Xrotation Yrotation
											End Site
											{
												OFFSET -0.022656 0.000000 0.000000 
											}
										}
									}
								}
							}
						}
					}
				}
			}
		}
	}
	JOINT LeftUpLeg
	{
		OFFSET 0.075264 -0.025573 0.000000 
		CHANNELS 3 Xrotation Yrotation Zrotation
		JOINT LeftLeg
		{
			OFFSET 0.000000 -0.326016 -0.013516 
			CHANNELS 3 Xrotation Yrotation Zrotation
			JOINT LeftFoot
			{
				OFFSET 0.000098 -0.306172 -0.006623 
				CHANNELS 3 Xrotation Yrotation Zrotation
				JOINT LeftToeBase
				{
					OFFSET -0.001432 -0.095259 0.064705 
					CHANNELS 3 Xrotation Yrotation Zrotation
					End Site
					{
						OFFSET 0.000000 0.000000 0.079438 
					}
				}
			}
		}
	}
	JOINT RightUpLeg
	{
		OFFSET -0.075264 -0.025573 0.000000 
		CHANNELS 3 Xrotation Yrotation Zrotation
		JOINT RightLeg
		{
			OFFSET 0.000000 -0.326016 -0.013516 
			CHANNELS 3 Xrotation Yrotation Zrotation
			JOINT RightFoot
			{
				OFFSET 0.000098 -0.306172 -0.006623 
				CHANNELS 3 Xrotation Yrotation Zrotation
				JOINT RightToeBase
				{
					OFFSET -0.001432 -0.095259 0.064705 
					CHANNELS 3 Xrotation Yrotation Zrotation
					End Site
					{
						OFFSET 0.000025 0.000000 0.079438 
					}
				}
			}
		}
	}
}
MOTION
Frames: 6
Frame Time: 0.033333
-0.001537 0.738518 0.000066 2.713100 1.018200 -1.696800 0.191900 0.331900 0.472300 0.385000 0.692400 0.496900 0.385000 0.692400 0.496900 -0.004300 -0.456000 -1.208100 -0.000000 0.000000 -0.000000 2.745000 -3.027600 1.908100 -16.207199 4.733200 -14.027700 -51.044800 -8.852100 -0.633600 20.841000 -4.308300 -32.040298 8.302400 -9.450700 23.390200 -15.169900 -0.577800 12.912200 1.065300 -2.792900 -6.240700 3.650800 -3.261600 -4.251000 -58.114799 6.485000 -16.020800 -99.991699 13.676300 -12.324000 0.000000 -0.000000 -0.000000 -38.815601 4.564100 -9.605400 -80.407799 8.201200 -12.100100 0.000000 -0.000000 -0.000000 -61.417000 -2.593800 -15.260600 -103.569702 12.565600 -9.039800 -0.000000 0.000000 -0.000000 -72.189201 -4.883200 -18.717199 -94.602203 12.761000 -7.110500 -0.000000 0.000000 0.000000 17.635500 3.607500 6.638800 53.334801 -15.278800 -11.818700 16.255800 9.770600 25.212500 -4.128100 2.715300 26.622299 3.573100 -3.683100 -14.717400 -3.711300 23.469400 8.126600 -3.141100 -3.030300 4.239200 37.028099 -0.139700 5.300300 66.397903 2.276100 9.195900 -0.000000 0.000000 -0.000000 46.469299 -0.418900 8.259400 72.361397 3.124800 10.944300 -0.000000 0.000000 -0.000000 44.899300 3.418000 9.502200 79.182198 9.684200 8.632800 0.000000 0.000000 0.000000 40.759899 5.031400 11.806300 85.264999 14.540500 8.590500 -0.000000 -0.000000 0.000000 -28.211700 5.512700 7.066400 67.554604 -0.908100 0.794000 -2.647400 0.399100 -1.293300 -3.324800 -1.820800 0.843300 -13.102200 -8.914000 2.759900 23.597300 7.864600 -0.256200 -10.845600 0.576200 -4.547800 -4.894200 -0.667400 0.583800 
-0.001758 0.739709 0.025837 -0.237400 0.804900 -1.432900 0.181900 0.551300 0.244600 0.366700 1.105000 0.125600 0.366700 1.105000 0.125600 0.256700 -0.270500 -1.141100 -0.000000 0.000000 -0.000000 2.865500 -2.342700 2.011200 -16.049801 4.659600 -13.771700 -51.228199 -9.408700 2.793700 20.284100 -3.929000 -33.376900 7.335000 -9.826900 22.903700 -15.169900 -0.577800 12.912000 2.176000 -8.791300 -9.191800 3.650800 -3.261600 -4.251000 -58.678699 6.680900 -16.229700 -99.997200 13.677400 -12.324200 0.000000 -0.000000 -0.000000 -39.528999 4.725500 -9.913700 -80.391296 8.198100 -12.097800 0.000000 -0.000000 0.000000 -61.848000 -2.374100 -15.452100 -103.595001 12.569400 -9.037400 -0.000000 -0.000000 -0.000000 -72.458504 -5.032800 -18.667801 -94.653297 12.768100 -7.102400 0.000000 0.000000 -0.000000 16.678400 3.752000 7.319600 54.347698 -13.787600 -10.966500 16.556999 8.465200 31.465700 -4.718900 2.618700 22.544701 7.797000 1.545800 -10.800700 -4.743400 19.233000 7.853000 -3.141100 -3.030300 4.239200 39.809799 0.103600 5.952400 65.251099 2.155400 9.012100 -0.000000 0.000000 0.000000 50.179901 -0.060200 8.880100 72.720398 3.172400 10.986700 0.000000 0.000000 0.000000 48.028099 4.056400 10.516600 80.107597 9.854400 8.615800 -0.000000 0.000000 0.000000 43.600601 5.427600 12.547100 85.339600 14.555200 8.580600 0.000000 -0.000000 0.000000 -32.149899 4.695000 5.330100 61.357700 -1.787100 0.940800 -5.606800 0.583300 -3.034600 -2.902500 0.580900 -0.929600 -11.920300 -8.632300 1.993500 25.112400 11.084400 0.320900 -10.879700 0.542500 -4.930100 -5.977100 -0.431900 0.402200 
-0.000690 0.739092 0.050609 -3.610700 0.733300 -1.112100 0.142700 0.837500 -0.011800 0.290300 1.663400 -0.242700 0.290300 1.663400 -0.242700 0.108200 0.021600 -1.294500 -0.000000 0.000000 -0.000000 3.574800 -1.512600 2.354500 -15.935000 4.578700 -13.463400 -51.034100 -9.679500 5.706200 20.557400 -3.193600 -35.077999 7.082700 -10.064400 23.100401 -15.169900 -0.577900 12.912000 3.135800 -14.248100 -9.632200 3.650800 -3.261600 -4.251000 -59.093399 6.793700 -16.346399 -100.054298 13.689600 -12.326400 -0.000000 0.000000 0.000000 -39.980701 4.878500 -10.192700 -80.392601 8.198400 -12.098000 0.000000 -0.000000 -0.000000 -61.849998 -2.288500 -15.525300 -103.535500 12.560100 -9.042700 -0.000000 0.000000 0.000000 -72.779900 -5.294600 -18.575500 -94.717400 12.777100 -7.092100 0.000000 -0.000000 -0.000000 16.029699 3.798000 7.595100 54.217499 -11.954800 -11.626200 17.675600 6.238900 40.278500 -3.766700 3.108300 18.502600 11.908300 8.066900 -4.381400 -5.343300 13.913700 5.908700 -3.141100 -3.030300 4.239300 45.725399 0.720200 7.377400 65.418503 2.172800 9.039800 0.000000 0.000000 -0.000000 56.720402 0.673900 9.945200 73.943901 3.336900 11.129200 0.000000 -0.000000 0.000000 54.595200 5.551800 12.707200 81.735497 10.153100 8.579200 0.000000 0.000000 0.000000 48.364101 6.359500 14.085600 85.819298 14.649500 8.516200 0.000000 0.000000 -0.000000 -35.031502 2.804900 3.239400 52.316101 -4.817500 2.355700 -5.222200 0.655900 -4.185800 -4.530400 0.581300 -1.174100 -12.515200 -8.198500 0.604000 29.155300 14.444900 0.880800 -11.529300 0.485900 -4.474700 -7.342400 -0.196600 0.234800 
0.001235 0.734282 0.075919 -8.005200 0.330500 -0.812300 0.163900 1.221600 -0.277800 0.334100 2.458800 -0.563300 0.334100 2.458800 -0.563300 -0.378400 -0.878600 -1.533900 -0.000000 0.000000 -0.000000 4.293100 -2.860200 2.517400 -15.583600 4.420200 -12.900800 -50.897701 -9.979000 7.850000 20.599899 -2.820200 -35.656898 7.992700 -10.578100 23.179199 -15.169900 -0.577800 12.912000 3.209500 -17.325001 -8.192900 3.650800 -3.261600 -4.251000 -59.784100 6.929800 -16.483101 -100.195503 13.720000 -12.331600 0.000000 -0.000000 -0.000000 -41.617199 4.995000 -10.436000 -80.263000 8.174100 -12.080000 0.000000 0.000000 -0.000000 -61.938999 -2.112600 -15.675300 -103.003601 12.477800 -9.090400 0.000000 0.000000 0.000000 -73.624901 -5.949400 -18.347000 -94.786003 12.786600 -7.081100 -0.000000 0.000000 0.000000 15.621300 3.812400 7.715400 53.800900 -10.285500 -12.685500 18.170500 4.243200 48.677502 -3.603700 4.854700 14.874000 15.155600 16.925100 5.011700 -7.854800 6.891200 3.285500 -3.141100 -3.030300 4.239300 50.303200 1.360700 8.706700 65.589699 2.190800 9.068600 -0.000000 -0.000000 0.000000 62.613800 1.582400 11.135100 75.171303 3.505000 11.268700 -0.000000 -0.000000 0.000000 60.443298 7.049400 14.716500 82.823303 10.351800 8.549900 -0.000000 -0.000000 0.000000 51.766102 7.453100 15.753000 86.487801 14.779900 8.425300 -0.000000 0.000000 0.000000 -37.106201 0.718100 2.216600 45.145599 -15.869800 4.244900 -2.086500 0.652900 -7.114100 -6.559800 -0.593500 -0.620100 -13.815300 -7.085500 -0.604500 35.043598 17.884001 0.886400 -12.530900 0.560700 -4.901100 -8.575600 -0.319600 0.364600 
0.004933 0.723667 0.102392 -14.153300 0.125000 0.139800 0.114900 1.793500 -0.631100 0.240600 3.647400 -1.065900 0.240600 3.647400 -1.065900 -1.024000 -3.470600 -2.194200 -0.000000 0.000000 -0.000000 4.520400 -7.599400 2.493500 -15.265200 4.317900 -12.564700 -50.380600 -10.540700 9.842600 19.648701 -2.962200 -34.732101 8.562500 -9.865100 22.720900 -15.169900 -0.577700 12.912000 1.560200 -17.275999 -8.460200 3.650800 -3.261600 -4.251000 -62.102901 7.175000 -16.705900 -100.419998 13.768300 -12.339900 0.000000 -0.000000 -0.000000 -45.657101 4.987400 -10.458500 -80.209999 8.164300 -12.072800 -0.000000 -0.000000 -0.000000 -63.696301 -1.265600 -16.398300 -102.672897 12.426400 -9.119600 -0.000000 0.000000 0.000000 -74.357201 -6.962300 -17.975401 -94.948196 12.809200 -7.055300 0.000000 -0.000000 -0.000000 15.140500 3.851900 7.960500 53.971001 -9.052600 -12.691400 17.776600 3.851200 54.111198 -4.985000 7.846000 11.281100 14.874300 18.049500 9.172000 -8.769600 4.709600 2.926800 -3.141100 -3.030300 4.239200 51.465401 1.532500 9.046100 64.861801 2.115500 8.952700 -0.000000 0.000000 0.000000 63.782398 1.925400 11.655900 74.587601 3.424900 11.203400 0.000000 -0.000000 0.000000 59.734200 7.015900 14.698800 82.089401 10.217900 8.570100 0.000000 0.000000 -0.000000 48.985298 7.274400 15.462400 85.911400 14.667600 8.503800 -0.000000 0.000000 -0.000000 -39.276402 -0.940900 1.716500 44.582001 -31.258200 6.203200 2.453900 0.352400 -11.688800 -4.999500 1.282400 -1.763100 -16.377300 -4.959300 -2.159400 43.046902 21.337700 0.116900 -14.450800 0.889500 -6.907900 -10.443900 -0.461700 -1.614000 
0.011302 0.709952 0.126505 -22.352400 0.620900 1.972500 -0.024800 2.597400 -1.082700 -0.026800 5.250500 -1.773000 -0.026800 5.250500 -1.773000 -1.887200 -6.923500 -3.741100 -0.000000 0.000000 -0.000000 4.833800 -14.765100 2.276100 -15.622200 4.527200 -13.367400 -49.556400 -11.226700 11.300600 18.001801 -3.912300 -31.768101 9.333800 -7.522300 21.814800 -15.170000 -0.577500 12.911800 -0.539800 -20.534300 -7.340900 3.650800 -3.261600 -4.251000 -58.844002 6.354700 -16.311701 -97.259598 13.090500 -12.516700 -0.000000 -0.000000 -0.000000 -43.708599 4.216600 -9.727900 -77.150200 7.541600 -12.028800 0.000000 -0.000000 -0.000000 -61.370701 -1.470900 -16.316401 -99.726799 11.960700 -9.270800 0.000000 -0.000000 0.000000 -72.375099 -8.355600 -17.159100 -93.266998 12.605700 -7.071300 0.000000 -0.000000 -0.000000 14.721500 3.886800 8.187200 54.352699 -8.357100 -11.644600 17.402000 3.908000 56.532700 -8.508700 11.320800 8.910400 9.911300 5.533800 0.272800 -4.473800 13.088200 6.298500 -3.141100 -3.030300 4.239200 45.150600 0.534300 6.935600 64.098198 2.038100 8.830200 0.000000 0.000000 0.000000 56.946899 0.928000 10.412700 71.626198 3.028100 10.857700 0.000000 0.000000 -0.000000 52.641102 5.591500 12.773000 79.814697 9.800600 8.621400 -0.000000 0.000000 -0.000000 41.349998 5.816500 12.987500 86.018097 14.688400 8.489400 -0.000000 -0.000000 -0.000000 -40.046398 -1.344900 1.287000 47.638901 -34.769501 7.345600 4.268600 0.117800 -13.531600 -4.199100 1.470600 2.525000 -20.243000 -2.087000 -4.540800 51.241699 24.670000 -0.861500 -16.290800 1.559600 -10.357700 -13.378100 -0.185100 -0.703700 
